<?xml version="1.0" ?><svg xmlns="http://www.w3.org/2000/svg" xmlns:xlink="http://www.w3.org/1999/xlink" version="1.1" id="Layer_1" viewBox="0 0 100 100" style="enable-background:new 0 0 100 100;" xml:space="preserve"><g><g><g><g><path style="fill:#FFFFFF;" d="M72.499,26.048c-0.083-0.25-0.27-0.455-0.462-0.641c-0.917-0.888-2.055-1.529-3.225-2.076      c-2.155-1.009-4.415-1.792-6.719-2.423c-3.166-0.868-6.333-1.735-9.499-2.603c-0.297-0.081-0.601-0.166-0.85-0.343      c-0.285-0.202-0.471-0.507-0.689-0.777c-1.109-1.373-3.152-1.717-4.738-0.924c-0.155,0.078-0.332,0.056-0.46-0.058      c-0.926-0.82-2.295-1.219-3.576-1.129c-1.806,0.126-3.452,1.03-4.929,2.041c-4.377,2.996-7.947,7.28-9.315,12.289      c-1.368,5.009-0.304,10.739,3.338,14.543c3.715,3.88,9.386,5.3,13.93,8.245c4.635,3.005,8.029,7.707,9.432,12.921l1.542-1.253      c5.385-4.397,9.34-10.359,11.447-16.858c1.631-5.03,2.154-10.367,1.686-15.622c1.342-1.977,2.351-3.302,2.687-3.85      C72.377,27.076,72.665,26.55,72.499,26.048z"/><path d="M54.101,67.081l-0.451-1.676c-1.338-4.974-4.602-9.445-8.957-12.267c-1.656-1.074-3.53-1.967-5.343-2.83      c-3.115-1.485-6.335-3.019-8.788-5.581c-3.78-3.948-5.165-9.933-3.611-15.619c1.35-4.947,4.819-9.536,9.765-12.922      c1.401-0.96,3.293-2.082,5.487-2.235c1.455-0.103,2.935,0.311,4.036,1.116c2.005-0.777,4.382-0.212,5.693,1.412l0.182,0.235      c0.103,0.138,0.211,0.28,0.284,0.332c0.09,0.063,0.314,0.124,0.493,0.174l9.501,2.604c2.568,0.703,4.825,1.517,6.899,2.489      c1.054,0.494,2.407,1.2,3.53,2.288c0.28,0.27,0.588,0.613,0.748,1.098c0.342,1.034-0.233,1.972-0.509,2.423      c-0.166,0.271-0.487,0.724-0.929,1.342c-0.419,0.586-0.951,1.332-1.562,2.223c0.435,5.432-0.161,10.7-1.77,15.665      c-2.202,6.791-6.395,12.965-11.806,17.383L54.101,67.081z M42.641,16.187c-0.094,0-0.187,0.003-0.281,0.01      c-1.653,0.116-3.204,1.048-4.371,1.847c-4.506,3.084-7.654,7.224-8.864,11.656c-1.325,4.852-0.123,10.138,3.065,13.467      c2.167,2.263,5.063,3.643,8.13,5.104c1.878,0.895,3.819,1.82,5.599,2.974c4.334,2.81,7.693,7.099,9.401,11.942l0.25-0.203      c5.078-4.146,9.015-9.946,11.085-16.331c1.555-4.797,2.105-9.902,1.635-15.173l-0.036-0.401l0.226-0.332      c0.717-1.056,1.339-1.927,1.816-2.596c0.4-0.559,0.692-0.966,0.842-1.21c0.195-0.318,0.261-0.474,0.278-0.551      c-0.023-0.03-0.069-0.083-0.162-0.172c-0.69-0.669-1.591-1.244-2.919-1.866c-1.958-0.917-4.096-1.688-6.539-2.358l-9.5-2.603      c-0.332-0.09-0.788-0.214-1.204-0.51c-0.356-0.254-0.59-0.563-0.778-0.811l-0.136-0.177c-0.755-0.935-2.196-1.202-3.357-0.624      c-0.569,0.281-1.238,0.195-1.711-0.223C44.5,16.506,43.574,16.187,42.641,16.187z M71.437,26.42h0.011H71.437z"/></g><g><path style="fill:#FFFFFF;" d="M72.499,26.048c-0.083-0.25-0.27-0.455-0.462-0.641c-0.917-0.888-2.055-1.529-3.225-2.076      c-2.155-1.009-4.415-1.792-6.719-2.423c-3.166-0.868-6.333-1.735-9.499-2.603c-0.297-0.081-0.601-0.166-0.85-0.343      c-0.285-0.202-0.471-0.507-0.689-0.777c-1.109-1.373-3.152-1.717-4.738-0.924c-0.155,0.078-0.332,0.056-0.46-0.058      c-0.926-0.82-2.295-1.219-3.576-1.129c-1.806,0.126-3.452,1.03-4.929,2.041c-4.377,2.996-7.947,7.28-9.315,12.289      c-1.368,5.009-0.304,10.739,3.338,14.543c3.715,3.88,9.386,5.3,13.93,8.245c4.635,3.005,8.029,7.707,9.432,12.921l1.542-1.253      c5.385-4.397,9.34-10.359,11.447-16.858c1.631-5.03,2.154-10.367,1.686-15.622c1.342-1.977,2.351-3.302,2.687-3.85      C72.377,27.076,72.665,26.55,72.499,26.048z"/><path d="M54.101,67.081l-0.451-1.676c-1.338-4.974-4.602-9.445-8.957-12.267c-1.656-1.074-3.53-1.967-5.343-2.83      c-3.115-1.485-6.335-3.019-8.788-5.581c-3.78-3.948-5.165-9.933-3.611-15.619c1.35-4.947,4.819-9.536,9.765-12.922      c1.401-0.96,3.293-2.082,5.487-2.235c1.455-0.103,2.935,0.311,4.036,1.116c2.005-0.777,4.382-0.212,5.693,1.412l0.182,0.235      c0.103,0.138,0.211,0.28,0.284,0.332c0.09,0.063,0.314,0.124,0.493,0.174l9.501,2.604c2.568,0.703,4.825,1.517,6.899,2.489      c1.054,0.494,2.407,1.2,3.53,2.288c0.28,0.27,0.588,0.613,0.748,1.098c0.342,1.034-0.233,1.972-0.509,2.423      c-0.166,0.271-0.487,0.724-0.929,1.342c-0.419,0.586-0.951,1.332-1.562,2.223c0.435,5.432-0.161,10.7-1.77,15.665      c-2.202,6.791-6.395,12.965-11.806,17.383L54.101,67.081z M42.641,16.187c-0.094,0-0.187,0.003-0.281,0.01      c-1.653,0.116-3.204,1.048-4.371,1.847c-4.506,3.084-7.654,7.224-8.864,11.656c-1.325,4.852-0.123,10.138,3.065,13.467      c2.167,2.263,5.063,3.643,8.13,5.104c1.878,0.895,3.819,1.82,5.599,2.974c4.334,2.81,7.693,7.099,9.401,11.942l0.25-0.203      c5.078-4.146,9.015-9.946,11.085-16.331c1.555-4.797,2.105-9.902,1.635-15.173l-0.036-0.401l0.226-0.332      c0.717-1.056,1.339-1.927,1.816-2.596c0.4-0.559,0.692-0.966,0.842-1.21c0.195-0.318,0.261-0.474,0.278-0.551      c-0.023-0.03-0.069-0.083-0.162-0.172c-0.69-0.669-1.591-1.244-2.919-1.866c-1.958-0.917-4.096-1.688-6.539-2.358l-9.5-2.603      c-0.332-0.09-0.788-0.214-1.204-0.51c-0.356-0.254-0.59-0.563-0.778-0.811l-0.136-0.177c-0.755-0.935-2.196-1.202-3.357-0.624      c-0.569,0.281-1.238,0.195-1.711-0.223C44.5,16.506,43.574,16.187,42.641,16.187z M71.437,26.42h0.011H71.437z"/></g><g><path d="M57.634,44.758l-2.247-0.175l0.088-1.124c0.41-5.283,0.054-10.591-1.06-15.777l-0.238-1.102l2.204-0.474l0.236,1.102      c1.16,5.399,1.532,10.925,1.104,16.425L57.634,44.758z"/></g><g><path d="M63.642,43.916l-2.04-0.958l0.478-1.02c1.85-3.944,4.015-7.709,6.617-11.512l0.636-0.93l1.861,1.273L70.556,31.7      c-2.532,3.7-4.637,7.362-6.436,11.195L63.642,43.916z"/></g><g><g><path style="fill:#8FEB48;" d="M60.723,70.333c-0.078-2.087-0.037-6.405,0.012-10.868c-1.353,1.584-2.83,3.067-4.454,4.394       l-1.542,1.253l0,0c-1.035,0.868-1.993,1.804-2.544,3.001c-1.774,3.853,1.396,8.405,0.245,12.472       c-0.158,0.556-0.393,1.111-0.579,1.667c0.092,0.453,0.179,0.907,0.375,1.326c0.16,0.34,0.413,0.63,0.727,0.865       c1.529,1.144,3.796,0.202,4.208-1.622c0.393-1.746,1.849-3.392,2.654-5.112C60.89,75.432,60.817,72.83,60.723,70.333z"/><path d="M54.476,86.067c-0.785,0-1.552-0.246-2.188-0.722c-0.479-0.358-0.84-0.793-1.073-1.29       c-0.244-0.521-0.351-1.05-0.446-1.515l-0.06-0.297l0.083-0.35c0.075-0.224,0.158-0.449,0.241-0.673       c0.116-0.314,0.233-0.628,0.322-0.942c0.465-1.64,0.096-3.454-0.293-5.375c-0.486-2.397-0.989-4.876,0.109-7.262       c0.667-1.448,1.811-2.528,2.843-3.394l1.556-1.264c1.484-1.213,2.935-2.643,4.309-4.251l2.018-2.362l-0.034,3.106       c-0.052,4.72-0.089,8.792-0.013,10.814l0,0c0.093,2.496,0.199,5.324-1.005,7.896c-0.337,0.719-0.764,1.406-1.178,2.07       c-0.615,0.987-1.196,1.92-1.397,2.811c-0.285,1.265-1.204,2.296-2.457,2.758C55.375,85.987,54.922,86.067,54.476,86.067z        M53.027,82.329c0.065,0.303,0.13,0.559,0.229,0.77c0.074,0.159,0.203,0.307,0.382,0.441c0.555,0.415,1.16,0.258,1.394,0.171       c0.534-0.196,0.922-0.623,1.039-1.139c0.285-1.263,0.995-2.403,1.682-3.507c0.396-0.636,0.771-1.237,1.05-1.834       c0.973-2.078,0.878-4.617,0.794-6.856l0,0c-0.062-1.631-0.052-4.519-0.019-7.993c-0.843,0.847-1.707,1.632-2.584,2.349       l-1.544,1.255c-0.868,0.729-1.751,1.558-2.231,2.598c-0.79,1.716-0.381,3.734,0.053,5.871c0.426,2.099,0.866,4.271,0.254,6.437       c-0.105,0.37-0.241,0.74-0.377,1.109C53.107,82.11,53.067,82.219,53.027,82.329z"/></g><g><path style="fill:#8FEB48;" d="M52.194,68.113c0.551-1.197,1.509-2.133,2.544-3.001c-1.403-5.214-4.797-9.916-9.432-12.921       c-1.357-0.88-2.817-1.62-4.293-2.334c2.862,5.971,4.006,14.55,4.499,21.078c0.162,2.144,0.133,4.362,0.997,6.343       c1.051,2.408,3.213,3.795,5.352,4.974c0.187-0.556,0.421-1.111,0.579-1.667C53.591,76.518,50.42,71.966,52.194,68.113z"/><path d="M52.499,83.891l-1.183-0.652c-2.189-1.207-4.626-2.728-5.84-5.511c-0.791-1.813-0.905-3.729-1.015-5.581       c-0.022-0.377-0.045-0.754-0.073-1.127c-0.685-9.068-2.163-16.025-4.392-20.675l-1.392-2.904l2.899,1.402       c1.45,0.701,2.989,1.478,4.415,2.402c4.816,3.122,8.427,8.069,9.908,13.573l0.187,0.694l-0.551,0.462       c-0.882,0.74-1.765,1.569-2.245,2.61l-1.024-0.471l1.024,0.471c-0.79,1.716-0.381,3.734,0.053,5.871       c0.426,2.099,0.866,4.271,0.254,6.437c-0.105,0.37-0.241,0.74-0.377,1.109c-0.075,0.203-0.15,0.406-0.218,0.61L52.499,83.891z        M43.226,52.259c1.687,4.699,2.831,10.934,3.41,18.592c0.029,0.385,0.052,0.773,0.075,1.163c0.103,1.732,0.2,3.368,0.831,4.814       c0.742,1.701,2.205,2.857,3.712,3.776c0.036-0.108,0.07-0.217,0.101-0.325c0.465-1.64,0.096-3.454-0.293-5.375       c-0.486-2.397-0.989-4.876,0.109-7.262c0.548-1.19,1.42-2.132,2.285-2.91c-1.443-4.703-4.607-8.9-8.763-11.594       C44.218,52.829,43.727,52.537,43.226,52.259z"/></g></g><g><g><path style="fill:#FAD151;" d="M56.153,63.961c-1.812-9.476-3.999-23.391-5.82-25.915c-0.288-0.399-1.839-3.182-2.732-1.203       c-1.131,2.505,0.272,12.106,1.228,18.204c1.447,1.431,2.694,3.05,3.703,4.797c0.26,0.449,2.678,4.925,2.206,5.267       c0,0,1.064-0.865,1.065-0.869C55.921,64.149,56.037,64.055,56.153,63.961z"/><path d="M55.399,66.024l-1.372-1.787c-0.3,0.246-0.37,0.59-0.354,0.724c-0.072-0.64-1.523-3.525-2.117-4.552       c-0.965-1.67-2.149-3.204-3.52-4.56l-0.264-0.26l-0.057-0.367c-1.766-11.268-2.096-16.727-1.142-18.842       c0.477-1.056,1.179-1.324,1.684-1.362c1.396-0.113,2.365,1.407,2.892,2.22l0.097,0.148c1.492,2.066,2.899,9.344,4.877,20.211       c0.39,2.144,0.771,4.239,1.137,6.152l0.127,0.663l-0.88,0.712L56.5,65.115c-0.179,0.16-0.455,0.387-0.893,0.742       C55.538,65.923,55.466,65.976,55.399,66.024z M49.886,54.511c1.402,1.431,2.62,3.034,3.622,4.77       c0.362,0.626,0.674,1.192,0.942,1.703c-0.179-0.974-0.361-1.973-0.545-2.983c-1.417-7.791-3.182-17.488-4.486-19.294       c-0.037-0.051-0.092-0.135-0.161-0.242c-0.316-0.486-0.544-0.782-0.706-0.961C47.678,40.159,49.264,50.537,49.886,54.511z"/></g></g><g><rect x="46.251" y="14.745" transform="matrix(0.9878 -0.1555 0.1555 0.9878 -3.0073 7.6497)" width="4.51" height="33.19"/></g><g><path style="fill:#D1F7FF;" d="M33.767,28.94c-3.682,7.109,0,16.587,3.098,18.883c0,0-9.4-3.599-9.4-13.109      c0-9.51,6.31-14.675,6.31-14.675L33.767,28.94z"/><path d="M44.148,51.819l-7.687-2.943c-0.102-0.039-10.124-3.993-10.124-14.161c0-9.93,6.449-15.322,6.724-15.547l0.872-0.714      l1.427,1.745l-0.872,0.714c-0.057,0.047-5.897,4.976-5.897,13.803c0,4.278,2.108,7.268,4.246,9.2      c-1.866-4.337-2.664-10.487-0.072-15.493l0.519-1l2.001,1.036l-0.518,1.001c-3.529,6.813,0.234,15.582,2.767,17.46      L44.148,51.819z"/></g></g><g><path style="fill:#D1F7FF;" d="M60.303,49.539c-1.279,7.225-4.232,13.011-5.663,15.108c-0.239,0.35,0.2,0.753,0.536,0.496     c2.067-1.582,5.449-4.569,7.925-8.732L60.303,49.539z"/><path d="M54.943,66.35c-0.372,0.001-0.743-0.139-1.032-0.414c-0.533-0.506-0.619-1.316-0.203-1.925     c1.347-1.975,4.229-7.583,5.484-14.668l0.197-1.111l2.22,0.394l-0.196,1.109c-0.832,4.694-2.358,8.798-3.736,11.723     c1.494-1.483,3.119-3.38,4.454-5.624l0.576-0.969l1.937,1.152l-0.576,0.969c-2.495,4.195-5.841,7.237-8.209,9.05     C55.587,66.247,55.265,66.35,54.943,66.35z"/></g></g><g><g><path style="fill:#FAB91A;" d="M47.721,47.259c0.327,2.716,0.749,5.499,1.108,7.789c1.447,1.431,2.694,3.05,3.703,4.797     c0.26,0.449,2.678,4.925,2.206,5.267c0,0,1.064-0.865,1.065-0.869c0.117-0.093,0.234-0.188,0.35-0.282     c-0.724-3.788-1.509-8.285-2.305-12.481L47.721,47.259z"/><path d="M55.399,66.024l-1.372-1.788c-0.3,0.246-0.37,0.59-0.354,0.725c-0.072-0.636-1.522-3.523-2.117-4.553     c-0.965-1.67-2.149-3.204-3.52-4.559l-0.264-0.26l-0.057-0.367c-0.342-2.185-0.779-5.049-1.113-7.829l-0.135-1.119l2.238-0.269     l0.134,1.119c0.313,2.594,0.716,5.273,1.046,7.388c1.402,1.431,2.62,3.034,3.622,4.769c0.362,0.628,0.674,1.195,0.942,1.707     c-0.179-0.975-0.361-1.975-0.545-2.985c-0.381-2.096-0.772-4.241-1.165-6.312l-0.21-1.107l2.214-0.421l0.21,1.108     c0.395,2.076,0.786,4.227,1.169,6.328c0.39,2.144,0.771,4.238,1.137,6.151l0.127,0.663l-0.88,0.712L56.5,65.115     c-0.181,0.162-0.459,0.39-0.894,0.744C55.537,65.924,55.465,65.976,55.399,66.024z"/></g></g></g></svg>