<svg xmlns="http://www.w3.org/2000/svg" xmlns:xlink="http://www.w3.org/1999/xlink" version="1.1" x="0px" y="0px" viewBox="0 0 100 125.075" enable-background="new 0 0 100 100.06" xml:space="preserve"><path d="M72.99,35.733c-2.827-6.81-9.419-11.21-16.792-11.21c-2.393,0-4.734,0.469-6.962,1.395  c-1.001,0.415-2.054,0.626-3.129,0.626c-3.312,0-6.274-1.977-7.544-5.036c-1.461-3.52-4.868-5.793-8.679-5.793  c-1.237,0-2.447,0.242-3.599,0.72c-0.271,0.112-0.424,0.4-0.367,0.688c0.058,0.287,0.31,0.494,0.603,0.494  c3.05,0,5.531,2.482,5.531,5.531v13.17c0,5.18,4.215,9.396,9.395,9.396h0.625c6.315,6.408,9.937,15.257,9.937,24.331v4.905  c0,0.947,0.333,1.812,0.871,2.51c0.031,0.065,0.071,0.129,0.123,0.182c0.548,0.547,0.849,1.275,0.849,2.051v4.039  c0,0.341,0.272,0.614,0.614,0.614h3.337c0.339,0,0.614-0.273,0.614-0.614v-4.039c0-0.775,0.301-1.504,0.849-2.051  c0.051-0.052,0.086-0.112,0.116-0.175c0.544-0.698,0.879-1.567,0.879-2.517v-1.677l2.224-8.581c0.817-2.521,2.57-4.57,4.929-5.768  c2.704-1.372,4.65-3.712,5.488-6.625c0.816-3.722,1.207-7.225,1.193-10.73C74.035,39.546,73.667,37.591,72.99,35.733z   M43.775,45.713h15.23l0,0c0.003,0,0.003,0,0.003,0h0.002c0.337-0.001,0.671-0.028,0.998-0.084c0.023-0.005,0.049-0.015,0.072-0.019  c0.955-0.177,1.85-0.578,2.614-1.189c1.219,1.367,2.021,3.017,2.347,4.793c0.016,0.083,0.021,0.167,0.034,0.251  c0.033,0.214,0.067,0.429,0.087,0.646c0.013,0.135,0.013,0.273,0.018,0.409c0.01,0.168,0.024,0.334,0.024,0.503  c0,0.149-0.016,0.296-0.022,0.439c-0.008,0.183-0.009,0.366-0.025,0.546c-0.013,0.101-0.032,0.197-0.045,0.296  c-0.029,0.226-0.055,0.449-0.101,0.668c-0.015,0.074-0.037,0.143-0.053,0.213c-0.054,0.245-0.11,0.486-0.182,0.728  c-0.005,0.02-0.016,0.038-0.021,0.058c-0.092,0.289-0.19,0.571-0.305,0.846c-0.026,0.063-0.06,0.125-0.089,0.19  c-0.101,0.229-0.203,0.457-0.323,0.681c-0.05,0.093-0.111,0.184-0.166,0.274c-0.108,0.188-0.212,0.374-0.332,0.554  c-0.133,0.194-0.279,0.385-0.428,0.573c-0.054,0.067-0.098,0.141-0.151,0.205c-0.21,0.252-0.43,0.493-0.663,0.727  c-2.108,2.104-3.269,4.901-3.268,7.881v7.292v1.756c0,1.597-1.299,2.898-2.899,2.898c-1.597,0-2.896-1.302-2.896-2.898v-4.905  C53.236,61.053,49.803,52.269,43.775,45.713z M54.479,43.677l0.722-3.615c0.428-0.617,1.43-0.618,1.858-0.008l0.699,4.202  L54.479,43.677z M57.188,83.116h-2.108v-3.425c0-0.268-0.028-0.533-0.078-0.792c0.362,0.104,0.738,0.178,1.131,0.178  c0.396,0,0.771-0.074,1.133-0.178c-0.05,0.259-0.077,0.524-0.077,0.792V83.116z M71.71,51.994c-0.733,2.548-2.458,4.619-4.855,5.834  c-2.65,1.348-4.62,3.649-5.551,6.52l-1.044,4.026v-2.473c-0.001-2.652,1.031-5.142,2.906-7.008c0.264-0.264,0.512-0.534,0.745-0.817  c1.135-1.378,1.906-2.994,2.272-4.724c0.008-0.047,0.023-0.089,0.033-0.135c0.047-0.234,0.074-0.472,0.105-0.713  c0.017-0.124,0.044-0.248,0.057-0.372c0.018-0.188,0.018-0.378,0.027-0.565c0.01-0.179,0.027-0.356,0.027-0.536  c0-0.003,0-0.004,0-0.007c0-0.002,0-0.004,0-0.006c0-0.241-0.019-0.477-0.035-0.716c-0.01-0.126-0.008-0.256-0.019-0.383  c-0.03-0.315-0.08-0.627-0.139-0.937c-0.007-0.05-0.011-0.1-0.021-0.148c-0.424-2.146-1.472-4.121-3.053-5.706  c-0.12-0.121-0.279-0.181-0.435-0.181c-0.157,0-0.312,0.059-0.432,0.178c-0.877,0.867-2.033,1.344-3.256,1.354l-0.793-4.752  c-0.014-0.072-0.037-0.143-0.077-0.207c-0.423-0.731-1.205-1.185-2.043-1.185c-0.836,0-1.618,0.454-2.043,1.185  c-0.033,0.058-0.056,0.123-0.069,0.188l-0.737,3.686c-2.874-0.847-4.734-3.717-4.202-6.733c0.059-0.334-0.163-0.653-0.499-0.711  c-0.335-0.063-0.652,0.165-0.711,0.499c-0.334,1.893,0.089,3.804,1.193,5.378c0.261,0.373,0.557,0.711,0.876,1.022  c-1.925-0.47-3.599-1.601-4.745-3.239c-1.251-1.788-1.732-3.955-1.353-6.102c0.059-0.334-0.164-0.654-0.498-0.712  c-0.337-0.064-0.653,0.165-0.711,0.498c-0.436,2.472,0.115,4.964,1.556,7.021c0.458,0.656,0.996,1.231,1.587,1.739  c-4.931-1.507-8.091-6.496-7.173-11.698c0.059-0.334-0.164-0.653-0.498-0.711c-0.339-0.061-0.654,0.165-0.712,0.499  c-1.11,6.291,3.106,12.315,9.401,13.427l5.187,0.915h-9.647h-0.888c-4.503,0-8.166-3.663-8.166-8.167v-13.17  c0-2.752-1.655-5.128-4.022-6.181c0.208-0.016,0.416-0.024,0.625-0.024c3.313,0,6.274,1.977,7.544,5.036  c1.461,3.52,4.868,5.794,8.679,5.793c1.237,0,2.449-0.242,3.601-0.72c2.079-0.862,4.262-1.3,6.49-1.3  c6.875,0,13.021,4.102,15.647,10.426c0.62,1.709,0.965,3.535,1.019,5.41C72.877,44.986,72.496,48.403,71.71,51.994z"/><text x="0" y="115.06" fill="#000000" font-size="5px" font-weight="bold" font-family="'Helvetica Neue', Helvetica, Arial-Unicode, Arial, Sans-serif">Created by Nada AlYafei</text><text x="0" y="120.06" fill="#000000" font-size="5px" font-weight="bold" font-family="'Helvetica Neue', Helvetica, Arial-Unicode, Arial, Sans-serif">from the Noun Project</text></svg>